<?xml version="1.0" encoding="UTF-8" standalone="no"?>
<svg
   width="197"
   height="64"
   viewBox="0 0 52.122918 16.933333"
   version="1.1"
   id="svg72"
   inkscape:version="1.2.2 (b0a8486541, 2022-12-01)"
   sodipodi:docname="syenasweta-logo-text-version-64.svg"
   xmlns:inkscape="http://www.inkscape.org/namespaces/inkscape"
   xmlns:sodipodi="http://sodipodi.sourceforge.net/DTD/sodipodi-0.dtd"
   xmlns="http://www.w3.org/2000/svg"
   xmlns:svg="http://www.w3.org/2000/svg"
   xmlns:rdf="http://www.w3.org/1999/02/22-rdf-syntax-ns#"
   xmlns:cc="http://creativecommons.org/ns#"
   xmlns:dc="http://purl.org/dc/elements/1.1/">
  <defs
     id="defs66">
    <inkscape:path-effect
       effect="bspline"
       id="path-effect88"
       is_visible="true"
       lpeversion="1"
       weight="33.333333"
       steps="2"
       helper_size="0"
       apply_no_weight="true"
       apply_with_weight="true"
       only_selected="false" />
    <inkscape:path-effect
       effect="bspline"
       id="path-effect86"
       is_visible="true"
       lpeversion="1"
       weight="33.333333"
       steps="2"
       helper_size="0"
       apply_no_weight="true"
       apply_with_weight="true"
       only_selected="false" />
    <inkscape:path-effect
       effect="bspline"
       id="path-effect187"
       is_visible="true"
       lpeversion="1"
       weight="33.333333"
       steps="2"
       helper_size="0"
       apply_no_weight="true"
       apply_with_weight="true"
       only_selected="false" />
    <inkscape:path-effect
       effect="bspline"
       id="path-effect185"
       is_visible="true"
       lpeversion="1"
       weight="33.333333"
       steps="2"
       helper_size="0"
       apply_no_weight="true"
       apply_with_weight="true"
       only_selected="false" />
    <inkscape:path-effect
       effect="bspline"
       id="path-effect1040"
       is_visible="true"
       lpeversion="1"
       weight="33.333333"
       steps="2"
       helper_size="0"
       apply_no_weight="true"
       apply_with_weight="true"
       only_selected="false" />
    <inkscape:path-effect
       effect="bspline"
       id="path-effect1050"
       is_visible="true"
       lpeversion="1"
       weight="33.333333"
       steps="2"
       helper_size="0"
       apply_no_weight="true"
       apply_with_weight="true"
       only_selected="false" />
    <inkscape:path-effect
       effect="bspline"
       id="path-effect30"
       is_visible="true"
       lpeversion="1"
       weight="33.333333"
       steps="2"
       helper_size="0"
       apply_no_weight="true"
       apply_with_weight="true"
       only_selected="false" />
    <inkscape:path-effect
       effect="bspline"
       id="path-effect34"
       is_visible="true"
       lpeversion="1"
       weight="33.333333"
       steps="2"
       helper_size="0"
       apply_no_weight="true"
       apply_with_weight="true"
       only_selected="false" />
    <inkscape:path-effect
       effect="bspline"
       id="path-effect38"
       is_visible="true"
       lpeversion="1"
       weight="33.333333"
       steps="2"
       helper_size="0"
       apply_no_weight="true"
       apply_with_weight="true"
       only_selected="false" />
    <inkscape:path-effect
       effect="bspline"
       id="path-effect42"
       is_visible="true"
       lpeversion="1"
       weight="33.333333"
       steps="2"
       helper_size="0"
       apply_no_weight="true"
       apply_with_weight="true"
       only_selected="false" />
    <inkscape:path-effect
       effect="bspline"
       id="path-effect50"
       is_visible="true"
       lpeversion="1"
       weight="33.333333"
       steps="2"
       helper_size="0"
       apply_no_weight="true"
       apply_with_weight="true"
       only_selected="false" />
    <inkscape:path-effect
       effect="bspline"
       id="path-effect54"
       is_visible="true"
       lpeversion="1"
       weight="33.333333"
       steps="2"
       helper_size="0"
       apply_no_weight="true"
       apply_with_weight="true"
       only_selected="false" />
    <inkscape:path-effect
       effect="bspline"
       id="path-effect82"
       is_visible="true"
       lpeversion="1"
       weight="33.333333"
       steps="2"
       helper_size="0"
       apply_no_weight="true"
       apply_with_weight="true"
       only_selected="false" />
  </defs>
  <sodipodi:namedview
     id="base"
     pagecolor="#ffffff"
     bordercolor="#666666"
     borderopacity="1.0"
     inkscape:pageopacity="0.0"
     inkscape:pageshadow="2"
     inkscape:zoom="1.979899"
     inkscape:cx="82.327432"
     inkscape:cy="54.548237"
     inkscape:document-units="px"
     inkscape:current-layer="layer1"
     inkscape:document-rotation="0"
     showgrid="false"
     units="px"
     inkscape:window-width="1366"
     inkscape:window-height="699"
     inkscape:window-x="0"
     inkscape:window-y="32"
     inkscape:window-maximized="1"
     inkscape:showpageshadow="2"
     inkscape:pagecheckerboard="0"
     inkscape:deskcolor="#d1d1d1">
    <inkscape:grid
       type="xygrid"
       id="grid28"
       originx="0"
       originy="0" />
  </sodipodi:namedview>
  <metadata
     id="metadata69">
    <rdf:RDF>
      <cc:Work
         rdf:about="">
        <dc:format>image/svg+xml</dc:format>
        <dc:type
           rdf:resource="http://purl.org/dc/dcmitype/StillImage" />
      </cc:Work>
    </rdf:RDF>
  </metadata>
  <g
     inkscape:label="Layer 1"
     inkscape:groupmode="layer"
     id="layer1">
    <g
       id="g1946"
       transform="translate(-1.5875072)">
      <g
         id="g2886"
         style="fill:#93a994;fill-opacity:1;stroke:none"
         transform="matrix(0.1808775,0,0,0.1808775,-36.64824,-7.2204412)">
        <path
           style="font-style:normal;font-weight:normal;font-size:83.5261px;line-height:1.25;font-family:sans-serif;fill:#93a994;fill-opacity:1;stroke:none;stroke-width:0.0367842px;stroke-linecap:butt;stroke-linejoin:miter;stroke-opacity:1"
           d="m 228.9562,89.760531 c 0.6113,-0.800067 1.49733,-1.744447 2.49267,-2.722854 0.99534,-0.978408 2.09995,-1.99081 2.82095,-2.690367 0.721,-0.699557 1.05836,-1.086237 1.58322,-1.535772 0.52486,-0.449534 1.23714,-0.961875 1.80678,-1.500159 0.56963,-0.538285 0.99658,-1.102478 1.57374,-1.64549 0.57717,-0.543011 1.30451,-1.064801 1.92465,-1.455806 0.62015,-0.391005 1.13306,-0.651203 1.74863,-0.595646 0.61557,0.05556 1.33374,0.426822 2.22775,1.081646 0.89401,0.654824 1.96381,1.593149 2.76952,2.326219 0.80571,0.73307 1.34729,1.260836 2.09377,2.044466 0.74648,0.78363 1.69782,1.823062 2.44115,2.550085 0.74334,0.727023 1.27862,1.141605 1.88494,1.610494 0.60632,0.468889 1.28364,0.992057 1.89583,1.701915 0.61219,0.709857 1.15924,1.606357 1.5604,2.225859 0.40116,0.619501 0.65641,0.961976 0.74341,1.387639 0.087,0.425663 0.006,0.934492 -0.20084,1.343261 -0.20662,0.408769 -0.53864,0.717473 -1.5758,1.599421 -1.03716,0.881947 -2.77938,2.337066 -4.15376,3.596805 -1.37438,1.259743 -2.38083,2.324013 -3.19048,3.198313 -0.80964,0.87429 -1.42242,1.55856 -1.82536,2.06036 -0.40294,0.5018 -0.596,0.8211 -1.048,1.33477 -0.452,0.51368 -1.16291,1.22171 -1.93783,1.6978 -0.77491,0.4761 -1.61382,0.72024 -2.48912,0.53886 -0.87529,-0.18139 -1.78695,-0.78833 -2.62305,-1.57661 -0.8361,-0.78828 -1.59658,-1.75786 -2.44454,-2.87 -0.84796,-1.11213 -1.78334,-2.36674 -2.68625,-3.37765 -0.90291,-1.010907 -1.7733,-1.778049 -2.64447,-2.652268 -0.87117,-0.874219 -1.74308,-1.855466 -2.41526,-2.644113 -0.67218,-0.788647 -1.14461,-1.384658 -1.38085,-1.839158 -0.23623,-0.4545 -0.23623,-0.76747 -0.0679,-1.251848 0.16828,-0.484377 0.50484,-1.140105 1.11614,-1.940172 z"
           id="path28"
           inkscape:path-effect="#path-effect30"
           inkscape:original-d="m 228.68148,89.90484 c 0.88606,-0.944343 1.77209,-1.888722 2.65808,-2.833133 1.10468,-1.012402 2.20929,-2.024803 3.31388,-3.037257 0.33742,-0.386661 0.67479,-0.773337 1.01212,-1.160069 0.71237,-0.51233 1.42465,-1.024678 2.13693,-1.537076 0.427,-0.564181 0.85395,-1.128373 1.28087,-1.692616 0.7274,-0.52177 1.45474,-1.043559 2.18206,-1.565397 0.51296,-0.260169 1.02587,-0.520364 1.53874,-0.780604 0.71824,0.37132 1.43641,0.742586 2.15456,1.113823 1.06988,0.938398 2.13968,1.876725 3.20947,2.815032 0.54163,0.527834 1.0832,1.0556 1.62476,1.583346 0.95141,1.03951 1.90275,2.078942 2.85408,3.118361 0.53533,0.414636 1.07061,0.829219 1.60588,1.243775 0.67737,0.523224 1.3547,1.046383 2.03199,1.569519 0.5471,0.89657 1.09415,1.793067 1.64116,2.68954 0.25531,0.34253 0.51056,0.685007 0.76578,1.027455 -0.0812,0.508888 -0.16241,1.017717 -0.24365,1.526526 -0.33201,0.30876 -0.66403,0.617464 -0.99609,0.926139 -1.74226,1.455226 -3.48447,2.910349 -5.22677,4.365463 -1.00646,1.064353 -2.01292,2.128623 -3.01942,3.192883 -0.61278,0.68434 -1.22556,1.36861 -1.8384,2.05285 -0.19303,0.31935 -0.3861,0.63864 -0.5792,0.95791 -0.7109,0.7081 -1.42182,1.41612 -2.13278,2.12413 -0.83889,0.24419 -1.6778,0.48834 -2.51675,0.73245 -0.91166,-0.60692 -1.82332,-1.21386 -2.73503,-1.82084 -0.76047,-0.96959 -1.52095,-1.93918 -2.28148,-2.90882 -0.93539,-1.25463 -1.87077,-2.50924 -2.80622,-3.763908 -0.87038,-0.767141 -1.74077,-1.53428 -2.61121,-2.301472 -0.8719,-0.98125 -1.7438,-1.962499 -2.61576,-2.943799 -0.47241,-0.595991 -0.94484,-1.192003 -1.41731,-1.788057 3e-5,-0.312943 3e-5,-0.625913 0,-0.938924 0.33661,-0.655724 0.67317,-1.311453 1.00971,-1.96723 z" />
        <path
           style="font-style:normal;font-weight:normal;font-size:83.5261px;line-height:1.25;font-family:sans-serif;fill:#93a994;fill-opacity:1;stroke:none;stroke-width:0.0367842px;stroke-linecap:butt;stroke-linejoin:miter;stroke-opacity:1"
           d="m 220.65427,74.841325 c 0.42224,-0.39987 1.26672,-1.199613 1.98556,-1.860762 0.71885,-0.661149 1.31204,-1.183691 1.78134,-1.50017 0.46931,-0.316479 0.81469,-0.426888 1.31479,-0.303503 0.50011,0.123385 1.1549,0.480519 1.71594,1.117616 0.56104,0.637096 1.02831,1.554087 1.55176,2.554889 0.52345,1.000802 1.10305,2.085362 1.58094,3.027163 0.47789,0.941802 0.85405,1.7408 1.02634,2.339791 0.17229,0.59899 0.14072,0.997944 -0.0754,1.25693 -0.21618,0.258987 -0.61699,0.378029 -1.22566,0.347669 -0.60868,-0.03036 -1.42519,-0.21014 -2.2537,-0.503555 -0.82851,-0.293416 -1.66898,-0.700467 -2.38963,-1.077553 -0.72064,-0.377086 -1.32142,-0.724188 -1.9891,-1.107385 -0.66767,-0.383197 -1.40219,-0.80246 -1.90696,-1.110493 -0.50478,-0.308032 -0.77977,-0.504825 -1.02342,-0.726585 -0.24364,-0.221759 -0.4559,-0.46848 -0.53651,-0.815013 -0.0806,-0.346534 -0.0295,-0.792826 -0.004,-1.015998 0.0255,-0.223171 0.0255,-0.223171 0.44774,-0.623041 z"
           id="path32-3"
           inkscape:path-effect="#path-effect34"
           inkscape:original-d="m 220.23203,75.241195 c 0.84451,-0.799705 1.68899,-1.599446 2.53343,-2.399222 0.59325,-0.522521 1.18645,-1.045059 1.77961,-1.567642 0.34542,-0.110374 0.6908,-0.22078 1.03614,-0.331227 0.65485,0.357186 1.30964,0.71432 1.96441,1.071424 0.46733,0.917067 0.9346,1.834059 1.40185,2.751035 0.57964,1.084633 1.15925,2.169187 1.73882,3.253723 0.37621,0.799068 0.75237,1.598067 1.12851,2.397046 -0.0316,0.399005 -0.0631,0.797964 -0.0947,1.196896 -0.40078,0.119085 -0.80159,0.238125 -1.20245,0.357133 -0.8165,-0.179752 -1.63302,-0.359522 -2.44958,-0.539342 -0.84046,-0.407025 -1.68093,-0.814077 -2.52145,-1.221172 -0.60077,-0.347082 -1.20155,-0.694186 -1.80239,-1.041335 -0.73451,-0.419243 -1.46903,-0.838503 -2.2036,-1.257814 -0.27497,-0.196762 -0.54997,-0.393554 -0.82501,-0.590387 -0.21223,-0.246698 -0.42449,-0.493419 -0.6368,-0.740185 0.0512,-0.446282 0.1022,-0.892584 0.15325,-1.338931 z" />
        <path
           style="font-style:normal;font-weight:normal;font-size:83.5261px;line-height:1.25;font-family:sans-serif;fill:#93a994;fill-opacity:1;stroke:none;stroke-width:0.0367842px;stroke-linecap:butt;stroke-linejoin:miter;stroke-opacity:1"
           d="m 261.68872,71.287997 c 0.48506,0.469934 1.45513,1.409763 2.15629,2.108711 0.70116,0.698948 1.13338,1.156997 1.35032,1.62665 0.21694,0.469652 0.2186,0.95087 -0.006,1.374627 -0.22448,0.423756 -0.67511,0.790066 -1.42041,1.23011 -0.74531,0.440043 -1.78526,0.953793 -2.9027,1.619576 -1.11744,0.665783 -2.31231,1.483564 -3.28835,1.947031 -0.97604,0.463468 -1.73321,0.572601 -2.11181,0.368197 -0.37861,-0.204403 -0.37861,-0.722364 -0.22597,-1.37566 0.15265,-0.653296 0.45793,-1.441865 0.84385,-2.324704 0.38592,-0.882839 0.85245,-1.859886 1.38167,-2.830166 0.52922,-0.97028 1.12111,-1.933731 1.51279,-2.604061 0.39169,-0.67033 0.58317,-1.047514 0.92067,-1.267039 0.33751,-0.219525 0.82098,-0.281367 1.06272,-0.312287 0.24173,-0.03092 0.24175,-0.03092 0.72681,0.439015 z"
           id="path36"
           inkscape:path-effect="#path-effect38"
           inkscape:original-d="m 261.20366,70.818062 c 0.97012,0.939866 1.9402,1.879691 2.91022,2.81948 0.43229,0.458111 0.86451,0.916166 1.29672,1.374192 0.002,0.481275 0.003,0.962495 0.005,1.443688 -0.4506,0.366362 -0.90122,0.732675 -1.3519,1.098955 -1.03995,0.513806 -2.0799,1.027555 -3.1199,1.541276 -1.19487,0.817845 -2.38974,1.635626 -3.58467,2.453383 -0.75717,0.109176 -1.51434,0.218312 -2.27156,0.327406 3e-5,-0.517946 3e-5,-1.035907 0,-1.553921 0.30533,-0.788562 0.61062,-1.577129 0.91587,-2.36575 0.46659,-0.977051 0.93312,-1.954097 1.39961,-2.931201 0.59194,-0.963457 1.18382,-1.926911 1.77569,-2.890418 0.1915,-0.377159 0.38299,-0.754336 0.57443,-1.13156 0.48353,-0.06181 0.96701,-0.12365 1.45047,-0.18553 z" />
        <path
           style="font-style:normal;font-weight:normal;font-size:83.5261px;line-height:1.25;font-family:sans-serif;fill:#93a994;fill-opacity:1;stroke:none;stroke-width:0.0367842px;stroke-linecap:butt;stroke-linejoin:miter;stroke-opacity:1"
           d="m 258.34225,103.3576 c 1.06067,0.57022 2.69112,1.52005 4.00479,2.31894 1.31366,0.79888 2.31049,1.44679 3.04178,1.96089 0.73129,0.5141 1.19701,0.89437 1.56577,1.35027 0.36876,0.45591 0.64056,0.98743 0.45611,1.60221 -0.18445,0.61478 -0.82512,1.31283 -1.40719,1.84397 -0.58206,0.53114 -1.1055,0.89534 -1.64534,1.32417 -0.53984,0.42882 -1.09603,0.92222 -1.69795,0.98891 -0.60191,0.0667 -1.24956,-0.29339 -1.77072,-0.84022 -0.52115,-0.54683 -0.91576,-1.28041 -1.41877,-2.08431 -0.50302,-0.80389 -1.11443,-1.67806 -1.65741,-2.48984 -0.54297,-0.81179 -1.01748,-1.56115 -1.36912,-2.25926 -0.35163,-0.69811 -0.58036,-1.34495 -0.77597,-1.79848 -0.1956,-0.45353 -0.35808,-0.71372 -0.43933,-0.99906 -0.0813,-0.28534 -0.0813,-0.59579 0.11078,-0.9116 0.19203,-0.31581 0.57607,-0.63692 1.01356,-0.70216 0.43749,-0.0653 0.92835,0.12535 1.98901,0.69557 z"
           id="path40"
           inkscape:path-effect="#path-effect42"
           inkscape:original-d="m 257.77242,102.97797 c 1.63049,0.94987 3.26094,1.89969 4.89136,2.84948 0.99692,0.64798 1.99375,1.29589 2.99056,1.94378 0.46577,0.38031 0.93149,0.76057 1.39717,1.14079 0.27185,0.53158 0.54366,1.0631 0.81543,1.5946 -0.64065,0.69811 -1.28132,1.39616 -1.92203,2.09417 -0.52344,0.36426 -1.04688,0.72847 -1.57037,1.09266 -0.55618,0.49345 -1.11237,0.98686 -1.66861,1.48024 -0.64763,-0.36004 -1.29528,-0.72011 -1.94298,-1.08022 -0.39458,-0.73357 -0.78919,-1.46715 -1.18384,-2.20077 -0.6114,-0.87416 -1.2228,-1.74834 -1.83426,-2.62256 -0.47448,-0.74935 -0.94899,-1.49871 -1.42356,-2.24811 -0.22869,-0.64682 -0.45743,-1.29366 -0.6862,-1.94055 -0.16245,-0.26017 -0.32493,-0.52036 -0.48745,-0.7806 5e-5,-0.31043 5e-5,-0.62088 0,-0.93137 0.3841,-0.3211 0.76814,-0.64221 1.15216,-0.96335 0.49092,0.19064 0.98178,0.38124 1.47262,0.57181 z" />
        <path
           style="font-style:normal;font-weight:normal;font-size:83.5261px;line-height:1.25;font-family:sans-serif;fill:#93a994;fill-opacity:1;stroke:none;stroke-width:0.0367842px;stroke-linecap:butt;stroke-linejoin:miter;stroke-opacity:1"
           d="m 221.80951,113.16885 c 0.57362,0.53509 1.72084,1.60523 2.62634,2.31643 0.90551,0.7112 1.56928,1.06346 2.11969,1.14396 0.5504,0.0805 0.98744,-0.11072 1.45563,-0.71235 0.46819,-0.60163 0.96751,-1.61363 1.6782,-2.87821 0.71069,-1.26459 1.6327,-2.78167 2.19194,-3.87896 0.55924,-1.09729 0.75568,-1.77473 0.85524,-2.44038 0.0996,-0.66564 0.10222,-1.31946 -0.0836,-1.73555 -0.18584,-0.41609 -0.56022,-0.59441 -0.93642,-0.59827 -0.3762,-0.004 -0.75417,0.16673 -1.49432,0.50101 -0.74015,0.33427 -1.84243,0.8322 -2.74878,1.31379 -0.90636,0.48159 -1.61675,0.9468 -2.50766,1.57923 -0.89091,0.63243 -1.96227,1.43202 -2.66915,1.97716 -0.70688,0.54514 -1.04923,0.8358 -1.16533,1.27292 -0.1161,0.43713 -0.006,1.02066 0.0491,1.3124 0.0551,0.29174 0.0555,0.29174 0.62911,0.82682 z"
           id="path48"
           inkscape:path-effect="#path-effect50"
           inkscape:original-d="m 221.23588,112.63377 c 1.14725,1.07017 2.29447,2.14031 3.44165,3.21041 0.66382,0.35231 1.32759,0.70458 1.99133,1.05681 0.4371,-0.19121 0.87414,-0.38243 1.31116,-0.5737 0.49939,-1.012 0.99871,-2.024 1.498,-3.03606 0.92209,-1.51711 1.84409,-3.0342 2.76609,-4.55136 0.19649,-0.67743 0.39293,-1.35487 0.58933,-2.03237 0.003,-0.6538 0.005,-1.30762 0.008,-1.96149 -0.37435,-0.17829 -0.74873,-0.3566 -1.12314,-0.53497 -0.37796,0.17065 -0.75593,0.34125 -1.13394,0.51182 -1.10229,0.49799 -2.20457,0.99591 -3.3069,1.49382 -0.71038,0.46526 -1.42076,0.93048 -2.1312,1.39567 -1.07138,0.79967 -2.14274,1.59926 -3.21418,2.39885 -0.34232,0.29069 -0.68467,0.58134 -1.02706,0.87197 0.11018,0.58359 0.22034,1.16711 0.33045,1.7506 z" />
        <path
           style="font-style:normal;font-weight:normal;font-size:83.5261px;line-height:1.25;font-family:sans-serif;fill:#93a994;fill-opacity:1;stroke:none;stroke-width:0.0367842px;stroke-linecap:butt;stroke-linejoin:miter;stroke-opacity:1"
           d="m 237.7229,58.44258 c 0.32609,-0.544139 0.90367,-1.29038 1.42058,-1.928187 0.51691,-0.637807 0.97311,-1.167155 1.40531,-1.620931 0.43219,-0.453775 0.84035,-0.831941 1.2626,-0.979983 0.42225,-0.148043 0.85852,-0.06596 1.47416,0.333641 0.61564,0.399603 1.41063,1.116683 1.97141,1.774816 0.56079,0.658133 0.88737,1.257281 1.11547,1.664807 0.22811,0.407525 0.35773,0.623407 0.43922,1.256242 0.0815,0.632835 0.11488,1.682584 0.19098,2.508398 0.0761,0.825813 0.19491,1.427643 0.21901,1.840434 0.0241,0.412791 -0.0465,0.636521 -0.10087,0.884332 -0.0544,0.247811 -0.0925,0.519675 -0.73053,1.328336 -0.63801,0.80866 -1.87582,2.154095 -2.83815,2.744582 -0.96232,0.590488 -1.64915,0.425996 -2.22882,0.149805 -0.57967,-0.276192 -1.05212,-0.664083 -1.66741,-1.402221 -0.6153,-0.738139 -1.3734,-1.826486 -1.79858,-2.750611 -0.42519,-0.924126 -0.51743,-1.683984 -0.56355,-2.419165 -0.0461,-0.735182 -0.0461,-1.445639 -0.009,-1.971888 0.0373,-0.526249 0.11189,-0.868267 0.43799,-1.412407 z"
           id="path52"
           inkscape:path-effect="#path-effect54"
           inkscape:original-d="m 237.47141,58.644674 c 0.57762,-0.746202 1.15521,-1.492439 1.73275,-2.238714 0.45627,-0.529337 0.91247,-1.058689 1.36865,-1.588087 0.40821,-0.378148 0.81636,-0.756316 1.22449,-1.134528 0.43633,0.08212 0.87261,0.164198 1.30885,0.246245 0.79504,0.717138 1.59003,1.434212 2.38498,2.151262 0.32663,0.59921 0.65321,1.198358 0.97976,1.797483 0.12966,0.215926 0.25928,0.431807 0.38886,0.647657 0.0334,1.049828 0.0668,2.099576 0.10017,3.14931 0.11884,0.60189 0.23765,1.203718 0.35642,1.805523 -0.0706,0.223786 -0.14115,0.447529 -0.21179,0.671236 -0.0381,0.271907 -0.0763,0.543764 -0.11445,0.815592 -1.23783,1.345526 -2.47564,2.690964 -3.71352,4.03639 -0.68682,-0.164464 -1.37365,-0.328956 -2.06055,-0.49349 -0.47243,-0.387871 -0.94488,-0.775762 -1.41738,-1.163697 -0.75808,-1.088352 -1.51618,-2.176695 -2.27432,-3.265097 -0.0922,-0.759849 -0.18444,-1.519707 -0.27672,-2.279614 5e-5,-0.710452 5e-5,-1.420909 0,-2.131417 0.0746,-0.341989 0.14924,-0.683998 0.2238,-1.026054 z" />
        <path
           style="font-style:normal;font-weight:normal;font-size:83.5261px;line-height:1.25;font-family:sans-serif;fill:#93a994;fill-opacity:1;stroke:none;stroke-width:0.179651px;stroke-linecap:butt;stroke-linejoin:miter;stroke-opacity:1"
           d="m 239.84875,111.23352 c 0.18948,-0.0571 0.56835,-0.17126 0.94637,-0.21664 0.37802,-0.0454 0.75512,-0.022 1.19171,-0.0703 0.43659,-0.0483 0.93269,-0.16829 1.49766,-0.19173 0.56497,-0.0234 1.19869,0.0496 1.56905,0.29735 0.37035,0.24777 0.47747,0.67009 0.4422,1.30401 -0.0353,0.63393 -0.21284,1.47949 -0.35846,2.12369 -0.14561,0.64421 -0.25926,1.08702 -0.37293,1.58507 -0.11368,0.49806 -0.22739,1.05131 -0.46876,1.61882 -0.24136,0.5675 -0.61036,1.1493 -0.85929,1.50323 -0.24892,0.35392 -0.37779,0.47999 -0.54099,0.40144 -0.1632,-0.0786 -0.36086,-0.36194 -0.63294,-0.67056 -0.27209,-0.30861 -0.6186,-0.64241 -0.87784,-1.00798 -0.25925,-0.36556 -0.4311,-0.7629 -0.69763,-1.39273 -0.26652,-0.62982 -0.62769,-1.49209 -0.86601,-2.25911 -0.23832,-0.76701 -0.35371,-1.43873 -0.36019,-1.91743 -0.006,-0.47871 0.096,-0.76428 0.1473,-0.90712 0.0513,-0.14285 0.0513,-0.14288 0.24075,-0.19998 z"
           id="path953-3"
           inkscape:path-effect="#path-effect82"
           inkscape:original-d="m 239.65927,111.29062 c 0.37903,-0.11398 0.75789,-0.22816 1.13657,-0.34249 0.37729,0.0236 0.75439,0.0469 1.13132,0.0701 0.49631,-0.11979 0.99241,-0.23976 1.48835,-0.35991 0.63393,0.0732 1.26765,0.14624 1.90121,0.21909 0.10731,0.4225 0.21442,0.84482 0.32136,1.26696 -0.1774,0.84578 -0.35498,1.69134 -0.53273,2.53675 -0.11347,0.44301 -0.22712,0.88582 -0.34094,1.32846 -0.11354,0.55346 -0.22725,1.10671 -0.34113,1.6598 -0.36885,0.58201 -0.73785,1.16381 -1.10704,1.74546 -0.12869,0.12625 -0.25755,0.25232 -0.3866,0.37822 -0.19749,-0.28321 -0.39515,-0.5666 -0.593,-0.85016 -0.34636,-0.33364 -0.69287,-0.66744 -1.03959,-1.00144 -0.17168,-0.39717 -0.34354,-0.79451 -0.51558,-1.19204 -0.361,-0.86212 -0.72217,-1.72439 -1.08353,-2.58686 -0.11522,-0.67155 -0.23062,-1.34326 -0.3462,-2.01516 0.10269,-0.28541 0.2052,-0.57098 0.30753,-0.85675 z" />
      </g>
      <g
         id="g2906"
         style="fill:#bfcfdf;fill-opacity:1;stroke:none"
         transform="matrix(0.3685117,0,0,0.3685117,-56.867451,-42.697791)">
        <path
           d="m 198.69727,137.69818 0.41773,1.52349 1.86751,-0.36859 -0.44231,-2.35895 c -1.10576,-0.68803 -2.35895,-1.00748 -3.88244,-1.00748 -2.5064,0 -4.49676,1.22863 -4.49676,3.391 0,1.76922 1.37605,2.92413 3.75958,3.24357 l 1.27777,0.172 c 1.54806,0.19658 1.99037,0.58974 1.99037,1.37606 0,0.9829 -1.20405,1.49892 -2.58011,1.49892 -0.81089,0 -1.59721,-0.17201 -2.33438,-0.56516 l -0.29487,-1.47435 -2.08866,0.39316 0.41773,2.55553 c 1.17948,0.66346 2.65383,1.10576 4.42304,1.10576 2.58011,0 4.66877,-1.25319 4.66877,-3.563 0,-1.84294 -1.05662,-2.89955 -3.63672,-3.21899 l -1.30234,-0.17201 c -1.49892,-0.17201 -2.08866,-0.66346 -2.08866,-1.49892 0,-0.93375 1.08118,-1.4252 2.28524,-1.4252 0.83546,0 1.40062,0.14743 2.03951,0.39316 z"
           style="font-style:normal;font-variant:normal;font-weight:600;font-stretch:normal;font-size:83.5261px;line-height:1.25;font-family:Podkova;-inkscape-font-specification:'Podkova Semi-Bold';fill:#bfcfdf;fill-opacity:1;stroke:none;stroke-width:0.614314"
           id="path868" />
        <path
           d="m 213.44071,145.4385 -0.93375,-1.49892 c -1.00747,0.81089 -2.21152,1.25319 -3.61215,1.25319 -1.79379,0 -3.391,-0.93375 -3.53843,-3.09613 l 8.35463,-0.0246 c 0.0492,-0.39316 0.0983,-0.83546 0.0983,-1.20405 0,-3.24356 -2.03951,-5.38137 -5.28308,-5.38137 -3.31728,0 -5.55337,2.35896 -5.55337,5.84825 0,3.563 2.30981,5.82367 5.9711,5.82367 1.64636,0 3.12071,-0.54059 4.49676,-1.72007 z m -2.08865,-5.11107 h -5.94654 c 0.17201,-1.6955 1.52349,-2.87498 3.16985,-2.87498 1.6955,0 2.77669,1.17948 2.77669,2.87498 z"
           style="font-style:normal;font-variant:normal;font-weight:600;font-stretch:normal;font-size:83.5261px;line-height:1.25;font-family:Podkova;-inkscape-font-specification:'Podkova Semi-Bold';fill:#bfcfdf;fill-opacity:1;stroke:none;stroke-width:0.614314"
           id="path870" />
        <path
           d="m 215.25903,146.74084 h 6.58542 v -1.9658 h -2.06409 v -13.14626 l -4.2756,-1.20405 -0.58974,1.99037 2.4081,0.66345 v 11.69649 h -2.06409 z"
           style="font-style:normal;font-variant:normal;font-weight:600;font-stretch:normal;font-size:83.5261px;line-height:1.25;font-family:Podkova;-inkscape-font-specification:'Podkova Semi-Bold';fill:#bfcfdf;fill-opacity:1;stroke:none;stroke-width:0.614314"
           id="path872" />
        <path
           d="m 231.32938,146.1511 3.24356,1.10576 0.63889,-2.01494 -2.16238,-0.7126 v -4.15275 c 0,-3.19442 -1.67092,-4.88992 -4.76705,-4.88992 -1.32692,0 -2.62926,0.24573 -3.90702,0.71261 l -0.44231,2.45724 2.03952,0.31944 0.24572,-1.27776 c 0.61431,-0.19658 1.30234,-0.29487 2.06409,-0.29487 1.44977,0 2.28523,0.98289 2.28523,3.04698 l -2.89954,-0.0246 c -2.85041,0 -4.34933,1.1549 -4.34933,3.36642 0.0246,2.21152 1.57264,3.36643 4.52133,3.36643 1.20405,0 2.38353,-0.34401 3.48929,-1.00747 z m -3.58758,-3.98074 h 2.82583 v 2.30981 c -0.76174,0.51602 -1.67092,0.78632 -2.62925,0.78632 -1.37606,0 -2.08866,-0.49145 -2.08866,-1.52349 0,-1.00747 0.66346,-1.57264 1.89208,-1.57264 z"
           style="font-style:normal;font-variant:normal;font-weight:600;font-stretch:normal;font-size:83.5261px;line-height:1.25;font-family:Podkova;-inkscape-font-specification:'Podkova Semi-Bold';fill:#bfcfdf;fill-opacity:1;stroke:none;stroke-width:0.614314"
           id="path874" />
        <path
           d="m 239.92969,136.78899 -3.48929,-1.17947 -0.66346,1.99037 2.35896,0.78631 v 6.38884 h -2.06409 v 1.9658 h 6.92943 v -1.9658 h -2.4081 l 0.0246,-6.21683 c 0.7126,-0.46688 1.74464,-0.81089 2.82583,-0.86003 l 0.24572,1.35148 2.03952,-0.4423 -0.41773,-2.85041 c -0.34402,-0.14743 -0.83547,-0.22115 -1.44978,-0.22115 -1.30234,0 -2.6784,0.4423 -3.93159,1.25319 z"
           style="font-style:normal;font-variant:normal;font-weight:600;font-stretch:normal;font-size:83.5261px;line-height:1.25;font-family:Podkova;-inkscape-font-specification:'Podkova Semi-Bold';fill:#bfcfdf;fill-opacity:1;stroke:none;stroke-width:0.614314"
           id="path876" />
        <path
           d="m 254.99259,146.1511 3.24356,1.10576 0.63889,-2.01494 -2.16238,-0.7126 v -4.15275 c 0,-3.19442 -1.67093,-4.88992 -4.76706,-4.88992 -1.32691,0 -2.62925,0.24573 -3.90702,0.71261 l -0.4423,2.45724 2.03951,0.31944 0.24573,-1.27776 c 0.61431,-0.19658 1.30234,-0.29487 2.06408,-0.29487 1.44978,0 2.28524,0.98289 2.28524,3.04698 l -2.89955,-0.0246 c -2.8504,0 -4.34932,1.1549 -4.34932,3.36642 0.0246,2.21152 1.57264,3.36643 4.52133,3.36643 1.20405,0 2.38353,-0.34401 3.48929,-1.00747 z m -3.58758,-3.98074 h 2.82583 v 2.30981 c -0.76174,0.51602 -1.67093,0.78632 -2.62925,0.78632 -1.37606,0 -2.08866,-0.49145 -2.08866,-1.52349 0,-1.00747 0.66346,-1.57264 1.89208,-1.57264 z"
           style="font-style:normal;font-variant:normal;font-weight:600;font-stretch:normal;font-size:83.5261px;line-height:1.25;font-family:Podkova;-inkscape-font-specification:'Podkova Semi-Bold';fill:#bfcfdf;fill-opacity:1;stroke:none;stroke-width:0.614314"
           id="path878" />
        <path
           d="m 260.34935,130.42473 -0.63889,1.9658 2.33439,0.81089 v 11.57362 h -2.06409 v 1.9658 h 5.45509 v -1.9658 h -0.93376 v -2.48182 h 1.99037 l 2.72754,4.44762 h 3.391 v -1.9658 h -2.06408 l -2.28524,-3.53843 2.08866,-3.36643 h 1.94122 v -1.94122 h -5.62709 v 1.94122 h 1.2532 l -1.44978,2.48182 h -1.9658 v -8.50207 z"
           style="font-style:normal;font-variant:normal;font-weight:600;font-stretch:normal;font-size:83.5261px;line-height:1.25;font-family:Podkova;-inkscape-font-specification:'Podkova Semi-Bold';fill:#bfcfdf;fill-opacity:1;stroke:none;stroke-width:0.614314"
           id="path880" />
        <path
           d="m 279.93359,147.15857 c 0.81089,0 1.67093,-0.29487 2.4081,-0.61431 l -0.46687,-1.79379 c -0.66346,0.31944 -1.15491,0.46688 -1.67093,0.46688 -1.27777,0 -1.67093,-1.2532 -1.67093,-3.24357 v -4.1036 h 2.99784 v -1.94122 h -2.99784 v -2.89955 l -2.38353,0.68803 v 2.21152 h -2.03951 v 1.94122 h 2.03951 v 5.01278 c 0,3.12071 1.62179,4.27561 3.78416,4.27561 z"
           style="font-style:normal;font-variant:normal;font-weight:600;font-stretch:normal;font-size:83.5261px;line-height:1.25;font-family:Podkova;-inkscape-font-specification:'Podkova Semi-Bold';fill:#bfcfdf;fill-opacity:1;stroke:none;stroke-width:0.614314"
           id="path882" />
        <path
           d="m 291.87578,146.1511 3.24357,1.10576 0.63888,-2.01494 -2.16238,-0.7126 v -4.15275 c 0,-3.19442 -1.67092,-4.88992 -4.76705,-4.88992 -1.32691,0 -2.62926,0.24573 -3.90702,0.71261 l -0.44231,2.45724 2.03952,0.31944 0.24572,-1.27776 c 0.61431,-0.19658 1.30234,-0.29487 2.06409,-0.29487 1.44977,0 2.28523,0.98289 2.28523,3.04698 l -2.89954,-0.0246 c -2.85041,0 -4.34933,1.1549 -4.34933,3.36642 0.0246,2.21152 1.57264,3.36643 4.52133,3.36643 1.20405,0 2.38353,-0.34401 3.48929,-1.00747 z m -3.58758,-3.98074 h 2.82583 v 2.30981 c -0.76174,0.51602 -1.67092,0.78632 -2.62925,0.78632 -1.37605,0 -2.08866,-0.49145 -2.08866,-1.52349 0,-1.00747 0.66346,-1.57264 1.89208,-1.57264 z"
           style="font-style:normal;font-variant:normal;font-weight:600;font-stretch:normal;font-size:83.5261px;line-height:1.25;font-family:Podkova;-inkscape-font-specification:'Podkova Semi-Bold';fill:#bfcfdf;fill-opacity:1;stroke:none;stroke-width:0.614314"
           id="path884" />
      </g>
    </g>
  </g>
</svg>
