<?xml version="1.0" encoding="UTF-8" standalone="no"?>
<svg
   width="197"
   height="64"
   viewBox="0 0 52.122918 16.933333"
   version="1.1"
   id="svg72"
   inkscape:version="1.2.2 (b0a8486541, 2022-12-01)"
   sodipodi:docname="syenasweta-3.svg"
   xmlns:inkscape="http://www.inkscape.org/namespaces/inkscape"
   xmlns:sodipodi="http://sodipodi.sourceforge.net/DTD/sodipodi-0.dtd"
   xmlns="http://www.w3.org/2000/svg"
   xmlns:svg="http://www.w3.org/2000/svg"
   xmlns:rdf="http://www.w3.org/1999/02/22-rdf-syntax-ns#"
   xmlns:cc="http://creativecommons.org/ns#"
   xmlns:dc="http://purl.org/dc/elements/1.1/">
  <defs
     id="defs66">
    <inkscape:path-effect
       effect="bspline"
       id="path-effect88"
       is_visible="true"
       lpeversion="1"
       weight="33.333333"
       steps="2"
       helper_size="0"
       apply_no_weight="true"
       apply_with_weight="true"
       only_selected="false" />
    <inkscape:path-effect
       effect="bspline"
       id="path-effect86"
       is_visible="true"
       lpeversion="1"
       weight="33.333333"
       steps="2"
       helper_size="0"
       apply_no_weight="true"
       apply_with_weight="true"
       only_selected="false" />
    <inkscape:path-effect
       effect="bspline"
       id="path-effect187"
       is_visible="true"
       lpeversion="1"
       weight="33.333333"
       steps="2"
       helper_size="0"
       apply_no_weight="true"
       apply_with_weight="true"
       only_selected="false" />
    <inkscape:path-effect
       effect="bspline"
       id="path-effect185"
       is_visible="true"
       lpeversion="1"
       weight="33.333333"
       steps="2"
       helper_size="0"
       apply_no_weight="true"
       apply_with_weight="true"
       only_selected="false" />
    <inkscape:path-effect
       effect="bspline"
       id="path-effect1040"
       is_visible="true"
       lpeversion="1"
       weight="33.333333"
       steps="2"
       helper_size="0"
       apply_no_weight="true"
       apply_with_weight="true"
       only_selected="false" />
    <inkscape:path-effect
       effect="bspline"
       id="path-effect1050"
       is_visible="true"
       lpeversion="1"
       weight="33.333333"
       steps="2"
       helper_size="0"
       apply_no_weight="true"
       apply_with_weight="true"
       only_selected="false" />
  </defs>
  <sodipodi:namedview
     id="base"
     pagecolor="#ffffff"
     bordercolor="#666666"
     borderopacity="1.0"
     inkscape:pageopacity="0.0"
     inkscape:pageshadow="2"
     inkscape:zoom="1.979899"
     inkscape:cx="249.0026"
     inkscape:cy="65.154839"
     inkscape:document-units="px"
     inkscape:current-layer="layer1"
     inkscape:document-rotation="0"
     showgrid="false"
     units="px"
     inkscape:window-width="1366"
     inkscape:window-height="699"
     inkscape:window-x="0"
     inkscape:window-y="32"
     inkscape:window-maximized="1"
     inkscape:showpageshadow="2"
     inkscape:pagecheckerboard="0"
     inkscape:deskcolor="#d1d1d1">
    <inkscape:grid
       type="xygrid"
       id="grid28"
       originx="0"
       originy="0" />
  </sodipodi:namedview>
  <metadata
     id="metadata69">
    <rdf:RDF>
      <cc:Work
         rdf:about="">
        <dc:format>image/svg+xml</dc:format>
        <dc:type
           rdf:resource="http://purl.org/dc/dcmitype/StillImage" />
      </cc:Work>
    </rdf:RDF>
  </metadata>
  <g
     inkscape:label="Layer 1"
     inkscape:groupmode="layer"
     id="layer1">
    <g
       id="g259"
       transform="translate(0.13276813,-0.00911792)">
      <g
         id="g154"
         transform="matrix(0.07201384,0,0,0.07201384,72.567853,-2.0347307)"
         style="fill:#b5c9bd;fill-opacity:1;stroke:none;stroke-width:0.999731;stroke-dasharray:none">
        <g
           id="g1012"
           transform="translate(17.997817)"
           style="fill:#b5c9bd;fill-opacity:1;stroke:none;stroke-width:0.999731;stroke-dasharray:none">
          <path
             style="fill:#b5c9bd;fill-opacity:1;stroke:none;stroke-width:0.999731;stroke-linecap:butt;stroke-linejoin:miter;stroke-dasharray:none;stroke-opacity:1"
             d="m -1001.4665,37.256913 c -0.019,0.215245 -0.056,0.645685 -0.3785,4.373629 -0.3226,3.727943 -0.9307,10.755181 -0.4186,17.843032 0.5121,7.087851 2.1443,14.237462 5.55392,20.65155 3.40959,6.414088 8.59606,12.092357 17.22337,16.899943 8.62731,4.807583 20.69433,8.744063 33.92706,12.275743 13.23272,3.53168 27.62985,6.65823 40.2471,9.4368 12.61724,2.77857 23.45387,5.209 34.03402,8.29202 10.58015,3.08302 20.90295,6.8183 29.15148,12.65498 8.24853,5.83667 14.42189,13.77385 17.50865,22.59347 3.08675,8.81961 3.08675,18.5206 1.11956,27.19369 -1.96718,8.67309 -5.90123,16.31732 -10.97256,23.61957 -5.07133,7.30224 -11.27902,14.26135 -20.1159,21.19894 -8.83689,6.9376 -20.29999,13.85157 -26.38631,17.22164 -6.08631,3.37007 -6.79183,3.19369 -7.23279,3.01742 -0.44095,-0.17627 -0.63992,-0.37522 -0.71696,-0.45228 C -889,254 -889.00001,254.00001 -889,254 c 0,0 0,0 5.27342,-4.61426 5.27343,-4.61427 15.89324,-13.90665 24.18015,-23.05363 8.28692,-9.14698 14.27755,-18.18066 17.9119,-25.89915 3.63434,-7.71849 4.91237,-14.1217 4.27317,-20.51238 -0.6392,-6.39069 -3.19572,-12.76855 -8.14469,-18.52692 -4.94897,-5.75838 -12.29022,-10.89684 -24.48259,-15.2806 -12.19237,-4.38375 -29.23468,-8.01234 -47.62272,-12.05494 -18.38804,-4.0426 -38.1196,-8.49874 -52.3167,-12.8309 -14.19711,-4.33216 -22.85807,-8.5399 -29.83473,-14.61265 -6.97671,-6.07275 -12.26811,-14.009948 -14.77631,-22.720558 -2.5082,-8.71061 -2.2325,-18.193529 -0.4686,-25.690355 1.7639,-7.496827 5.0163,-13.007187 7.3036,-16.202712 2.2873,-3.195526 3.6105,-4.07767 4.4924,-4.51858 0.882,-0.44091 1.3227,-0.440904 1.7637,-0.440897 0,0 10e-5,2e-4 -0.019,0.215445 z"
             id="path1038"
             inkscape:path-effect="#path-effect185"
             inkscape:original-d="m -1001.4479,37.041668 c -0.037,0.43051 -0.074,0.86097 -0.1117,1.29147 -0.6077,7.02537 -1.2158,14.05261 -1.8241,21.07845 1.6324,7.149802 3.2646,14.299412 4.89656,21.448722 5.18706,5.67889 10.37353,11.35716 15.56006,17.03552 12.06803,3.93698 24.13505,7.87346 36.20254,11.80991 14.39797,3.12694 28.7951,6.2535 43.19226,9.37985 10.83733,2.43079 21.67396,4.86122 32.51055,7.29143 10.32369,3.73578 20.64649,7.47107 30.96965,11.20631 6.17399,7.93792 12.34736,15.8751 18.52083,23.8125 2.6e-4,9.70186 2.6e-4,19.40285 0,29.10417 -3.9334,7.64536 -7.86745,15.28959 -11.80263,22.93363 -6.20759,6.96072 -12.41528,13.91982 -18.62445,20.87886 -11.46527,6.9157 -22.92837,13.82967 -34.39583,20.74584 -0.70541,-0.17615 -1.41093,-0.35253 -2.11667,-0.52916 -0.17612,-0.1761 -0.37509,-0.37505 -0.5292,-0.52915 2.7e-4,2.6e-4 3e-5,-2e-5 3e-5,-2e-5 0,0 2.6e-4,2.6e-4 0,0 10.54709,-9.22825 21.16691,-18.52063 31.74993,-27.78131 5.99086,-9.03336 11.98149,-18.06704 17.97185,-27.10096 1.27834,-6.4032 2.55636,-12.80641 3.83415,-19.21004 -2.55636,-6.37785 -5.11288,-12.75571 -7.66971,-19.13396 -7.34128,-5.1384 -14.68253,-10.27686 -22.02419,-15.41568 -17.04306,-3.62863 -34.08538,-7.25718 -51.12898,-10.8862 -19.73249,-4.45614 -39.46405,-8.91227 -59.19707,-13.36894 -8.66121,-4.20773 -17.32216,-8.41548 -25.98388,-12.62374 -5.2915,-7.93739 -10.583,-15.87457 -15.875,-23.8125 0.2759,-9.48326 0.5515,-18.96618 0.8269,-28.449992 3.2525,-5.50965 6.5049,-11.02005 9.7564,-16.52938 1.323,-0.88157 2.6462,-1.7637 3.9687,-2.64585 0.4412,2.7e-4 1.3229,2e-5 1.3229,2e-5 z"
             sodipodi:nodetypes="cccccccccccccccccccccccccccccccc" />
          <path
             style="fill:#b5c9bd;fill-opacity:1;stroke:none;stroke-width:0.999731;stroke-linecap:butt;stroke-linejoin:miter;stroke-dasharray:none;stroke-opacity:1"
             d="m -821.40319,149.40275 c 2.17915,-7.74381 8.30143,-19.70318 13.12664,-27.88807 4.82521,-8.18488 8.35284,-12.59441 12.10122,-16.34279 3.74837,-3.74837 7.71696,-6.835054 13.44981,-8.59897 5.73285,-1.763916 13.22908,-2.204872 18.9618,1.323145 5.73272,3.528015 9.70131,11.024245 10.21188,18.327025 0.51057,7.30279 -2.43671,14.41142 -4.62861,18.36722 -2.19189,3.95581 -3.6283,4.75848 -4.35774,5.17108 -0.72945,0.4126 -0.75186,0.43509 -0.76456,0.44779 -0.0127,0.0127 -0.0167,0.0167 -0.0184,0.0159 -0.002,-8.2e-4 -0.002,-0.006 -0.002,-0.0264 10e-6,-0.0201 -2e-5,-0.0554 -3e-5,-2.23924 -10e-6,-2.18384 -2e-5,-6.58972 -1.10235,-10.53827 -1.10233,-3.94855 -3.30719,-7.47633 -6.39396,-9.46085 -3.08676,-1.98452 -7.05542,-2.42549 -11.68587,-1.1e-4 -4.63045,2.42538 -10.94364,8.73858 -14.56441,12.96805 -3.62077,4.22946 -7.77004,10.07864 -11.61475,15.78954 -3.84472,5.7109 -7.60758,11.59745 -11.37048,17.48407 -1.76389,-3.52778 -3.52762,-7.05524 -1.34847,-14.79905 z"
             id="path1048"
             inkscape:path-effect="#path-effect187"
             inkscape:original-d="m -825.34639,153.61846 c 6.12267,-11.95936 12.24495,-23.91873 18.36722,-35.87888 3.52811,-4.40955 7.05575,-8.81908 10.58334,-13.22916 3.9691,-3.08661 7.93769,-6.17329 11.90625,-9.26042 7.49693,-0.44072 14.99316,-0.88167 22.48958,-1.32292 3.9691,7.49695 7.93769,14.99318 11.90625,22.48959 -2.9472,7.10934 -5.89449,14.21797 -8.84222,21.32679 -1.43619,0.80297 -2.8726,1.60565 -4.30925,2.40805 -0.0222,0.0227 -0.0447,0.0451 -0.0672,0.0674 -0.003,0.003 -0.007,0.007 -0.0105,0.0103 2.9e-4,-0.005 6e-5,-0.0105 8e-5,-0.0158 1.2e-4,-0.0349 2.2e-4,-0.0702 -7e-5,-0.10528 2.6e-4,-4.3326 2.6e-4,-8.73848 -10e-6,-13.10811 -2.20459,-3.52751 -4.40945,-7.05529 -6.61458,-10.58335 -3.9685,-0.44071 -7.93716,-0.88167 -11.90625,-1.32292 -5.29151,5.29204 -11.60471,11.60524 -15.875,15.875 -2.97121,4.18911 -7.12048,10.03829 -11.04726,15.57319 -3.76264,5.88689 -11.28871,17.65986 -11.28871,17.65986 0,0 -3.52751,-7.05529 -5.29167,-10.58334 z"
             sodipodi:nodetypes="cccccccccsccccccccc" />
        </g>
      </g>
      <g
         id="g85"
         transform="matrix(0.06904094,0,0,0.06904094,59.210586,-1.6827184)"
         style="font-style:normal;font-variant:normal;font-weight:normal;font-stretch:normal;font-size:100.615px;line-height:1.25;font-family:Volkhov;-inkscape-font-specification:Volkhov;fill:#74a69a;fill-opacity:1;stroke:none;stroke-width:20.5462">
        <path
           d="m -567.60637,241.88335 c 9.70134,0 16.84005,-5.58284 16.84005,-13.27069 0,-7.68785 -5.49132,-9.79286 -13.54526,-12.35547 -8.14545,-2.56262 -11.34872,-3.66088 -11.34872,-8.96916 0,-3.93544 4.39305,-6.04045 8.69459,-6.04045 3.84392,0 7.59632,1.73892 7.87089,5.21676 0,2.74566 -2.65414,3.93544 -2.65414,4.30153 0,0.45761 1.55588,2.10501 3.75241,2.10501 3.38631,0 5.49132,-2.83719 5.49132,-5.94894 0,-5.76588 -6.68111,-8.69458 -13.36222,-8.69458 -7.96242,0 -16.56548,3.93544 -16.56548,12.0809 0,16.19939 24.71094,10.25047 24.71094,21.05006 0,4.57611 -3.47784,7.13872 -9.1522,7.13872 -6.58959,0 -9.79285,-2.4711 -9.79285,-5.94893 0,-2.74566 2.105,-3.93545 2.105,-4.30153 0,-0.45762 -1.55587,-2.10502 -3.7524,-2.10502 -3.38631,0 -5.76588,2.4711 -5.76588,5.94894 0,6.40654 7.04719,9.79285 16.47395,9.79285 z"
           style="font-style:normal;font-variant:normal;font-weight:normal;font-stretch:normal;font-size:100.615px;font-family:Alice;-inkscape-font-specification:Alice;fill:#74a69a;fill-opacity:1;stroke:none;stroke-width:18.6894"
           id="path54" />
        <path
           d="m -538.2279,260.73689 c 9.24372,0 15.00961,-11.34873 18.21288,-19.03658 0.27457,-0.54913 13.7283,-33.77162 13.7283,-33.77162 1.73891,-4.21001 3.84393,-5.3998 7.87089,-5.3998 1.00674,0 1.92196,0.18304 2.01349,-1.6474 0,-0.73218 -0.45762,-1.83044 -1.37284,-1.83044 -3.56935,0.18304 -4.39305,0.27457 -7.59632,0.27457 -3.20327,0 -5.3998,-0.0915 -8.87763,-0.27457 -0.91522,0 -1.28131,1.09826 -1.28131,1.83044 0.0915,1.83044 0.91522,1.6474 2.01348,1.6474 3.66088,0 4.66762,0.45761 3.47783,3.93545 l -8.96914,23.97876 h -0.27457 c -3.38631,-6.86415 -6.95568,-17.57222 -9.51829,-23.33811 -2.74566,-6.13197 -6.58959,-8.51155 -14.09439,-8.14546 -1.83044,0.0915 -3.2948,-0.0915 -3.20327,1.92196 0.0915,1.6474 0.54913,1.46435 2.105,1.73892 3.66088,0.45761 4.94219,2.105 6.95567,6.58959 3.75241,7.87089 7.8709,20.59245 12.26395,30.47682 0.54914,1.55588 0.54914,2.83719 0.0915,4.21002 -2.37957,5.12523 -6.2235,11.80634 -11.25721,11.80634 -3.02022,0 -4.48458,-2.56262 -4.39306,-4.75914 0.0915,-2.28806 1.46435,-3.02024 1.46435,-3.2948 0,-0.64066 -1.2813,-1.83044 -3.56935,-1.83044 0.54913,0 -5.67436,-0.27457 -5.85741,6.31502 -0.0915,4.66762 4.75915,8.60307 10.06742,8.60307 z"
           style="font-style:normal;font-variant:normal;font-weight:normal;font-stretch:normal;font-size:100.615px;font-family:Alice;-inkscape-font-specification:Alice;fill:#74a69a;fill-opacity:1;stroke:none;stroke-width:18.6894"
           id="path56" />
        <path
           d="m -473.15597,241.88335 c 7.41329,0 13.2707,-3.66088 17.0231,-9.60981 0.45761,-0.73217 0.18304,-1.92196 -0.73218,-2.47109 -0.82369,-0.54914 -1.55587,-0.45761 -2.01348,0.0915 -3.38631,5.49132 -6.77263,7.41328 -11.89787,7.41328 -10.34198,0 -14.46047,-7.87089 -14.46047,-18.48745 h 22.23985 c 3.7524,0 6.40654,-0.91522 6.40654,-5.21675 -0.8237,-8.87764 -6.31502,-15.37569 -17.57223,-15.37569 -12.63003,0 -20.40941,10.98264 -20.40941,21.59919 0,11.98938 7.23024,22.0568 21.41615,22.0568 z m -12.0809,-26.54138 c 0.45761,-8.78612 4.94218,-13.91135 11.07416,-13.91135 5.94893,0 8.78612,4.85067 8.78612,10.06742 -0.18305,2.83719 -2.01349,3.84393 -4.94219,3.84393 z"
           style="font-style:normal;font-variant:normal;font-weight:normal;font-stretch:normal;font-size:100.615px;font-family:Alice;-inkscape-font-specification:Alice;fill:#74a69a;fill-opacity:1;stroke:none;stroke-width:18.6894"
           id="path58" />
        <path
           d="m -447.89598,241.05966 c 3.56935,-0.18305 6.22348,-0.27457 9.51828,-0.27457 3.29479,0 6.04045,0.0915 9.60981,0.27457 1.00674,0 1.46436,-0.91522 1.46436,-1.83044 -0.0915,-1.83044 -1.00675,-1.6474 -2.10502,-1.6474 -5.12523,0 -4.75914,-3.02023 -4.75914,-6.2235 v -21.78223 c 1.09826,-2.10502 5.03371,-6.31503 11.34873,-6.31503 4.21001,0 8.78611,2.65414 8.78611,8.6946 v 19.40266 c 0,3.20327 0.36609,6.2235 -4.75914,6.2235 -1.09827,0 -2.01349,-0.18304 -2.105,1.6474 0,0.91522 0.54913,1.83044 1.46435,1.83044 3.56935,-0.18305 6.2235,-0.27457 9.51829,-0.27457 3.29479,0 6.04045,0.0915 9.6098,0.27457 0.91522,0 1.46436,-0.91522 1.46436,-1.83044 -0.0915,-1.83044 -1.00674,-1.6474 -2.105,-1.6474 -5.12524,0 -4.75915,-3.02023 -4.75915,-6.2235 v -19.49419 c 0,-8.14545 -5.21676,-13.63677 -13.54526,-13.63677 -7.68785,0 -11.16568,3.66088 -14.73505,7.04719 h -0.27456 v -5.76589 c 0,-1.46435 -0.8237,-1.83044 -1.73892,-1.73892 -1.83044,0.18304 -3.56935,1.73892 -11.89785,2.92871 -1.00675,0.18304 -1.46436,0.91522 -1.46436,1.64739 0,1.83044 1.09827,1.83044 2.19653,1.83044 5.03371,0 4.66762,3.02023 4.66762,6.2235 v 20.95854 c 0,3.20327 0.36609,6.2235 -4.66762,6.2235 -1.18979,0 -2.01348,-0.18304 -2.19653,1.6474 0,0.91522 0.54914,1.83044 1.46436,1.83044 z"
           style="font-style:normal;font-variant:normal;font-weight:normal;font-stretch:normal;font-size:100.615px;font-family:Alice;-inkscape-font-specification:Alice;fill:#74a69a;fill-opacity:1;stroke:none;stroke-width:18.6894"
           id="path60" />
        <path
           d="m -382.18328,241.88335 c 5.94893,0 11.80634,-2.56262 14.46048,-7.41328 0.54913,4.66762 4.66762,7.41328 9.1522,7.41328 1.55587,0 5.03371,-0.4576 5.03371,-2.105 0,-1.37284 -0.54913,-1.46435 -1.37283,-1.46435 -3.7524,0 -4.66762,-3.56937 -4.75914,-5.39981 v -21.32462 c 0,-11.25721 -8.6946,-13.36221 -16.93158,-13.36221 -7.04719,0 -14.55199,2.47109 -14.55199,9.33524 0,3.38631 2.10501,6.77263 5.94892,6.77263 2.4711,0 3.93545,-1.73892 3.93545,-2.28806 0,-0.36608 -2.9287,-1.73891 -2.9287,-4.75914 0,-4.11849 3.56935,-6.40654 7.04719,-6.40654 6.86415,0 9.42677,3.47784 9.42677,9.1522 v 7.23024 c -12.0809,0.64065 -26.72443,1.37283 -26.72443,13.72831 0,6.04045 4.75915,10.89111 12.26395,10.89111 z m 2.92871,-4.94219 c -3.84393,0 -5.94894,-1.92196 -5.94894,-6.22349 0,-7.13872 4.85067,-9.88438 17.48071,-10.7996 v 5.21676 c 0,6.6811 -5.30828,11.80633 -11.53177,11.80633 z"
           style="font-style:normal;font-variant:normal;font-weight:normal;font-stretch:normal;font-size:100.615px;font-family:Alice;-inkscape-font-specification:Alice;fill:#74a69a;fill-opacity:1;stroke:none;stroke-width:18.6894"
           id="path62" />
        <path
           d="m -331.75469,241.88335 c 9.70133,0 16.84005,-5.58284 16.84005,-13.27069 0,-7.68785 -5.49132,-9.79286 -13.54526,-12.35547 -8.14546,-2.56262 -11.34873,-3.66088 -11.34873,-8.96916 0,-3.93544 4.39306,-6.04045 8.69459,-6.04045 3.84393,0 7.59633,1.73892 7.87089,5.21676 0,2.74566 -2.65413,3.93544 -2.65413,4.30153 0,0.45761 1.55587,2.10501 3.7524,2.10501 3.38632,0 5.49132,-2.83719 5.49132,-5.94894 0,-5.76588 -6.6811,-8.69458 -13.36221,-8.69458 -7.96242,0 -16.56548,3.93544 -16.56548,12.0809 0,16.19939 24.71094,10.25047 24.71094,21.05006 0,4.57611 -3.47784,7.13872 -9.1522,7.13872 -6.58959,0 -9.79286,-2.4711 -9.79286,-5.94893 0,-2.74566 2.10501,-3.93545 2.10501,-4.30153 0,-0.45762 -1.55588,-2.10502 -3.75241,-2.10502 -3.38631,0 -5.76588,2.4711 -5.76588,5.94894 0,6.40654 7.04719,9.79285 16.47396,9.79285 z"
           style="font-style:normal;font-variant:normal;font-weight:normal;font-stretch:normal;font-size:100.615px;font-family:Alice;-inkscape-font-specification:Alice;fill:#74a69a;fill-opacity:1;stroke:none;stroke-width:18.6894"
           id="path64" />
        <path
           d="m -289.65467,241.70031 h 5.39979 l 9.06069,-29.9277 11.62329,29.9277 h 5.3998 l 10.15894,-33.77162 c 1.09826,-4.21001 3.47784,-5.3998 7.87089,-5.3998 1.00675,0 1.92197,0.18304 2.01349,-1.6474 0,-0.73218 -0.45761,-1.83044 -1.37283,-1.83044 -3.56936,0.18304 -4.48458,0.27457 -7.68785,0.27457 -3.20327,0 -5.49132,-0.0915 -8.96915,-0.27457 -0.91522,0 -1.28131,1.09826 -1.28131,1.83044 0.0915,1.83044 0.91522,1.6474 2.01348,1.6474 3.38631,0 4.21001,0.64065 3.47784,3.93545 -1.46435,5.49132 -3.93545,16.657 -6.40654,24.34485 h -0.27457 l -12.53851,-31.48357 h -4.39306 c -1.46435,5.49132 -6.40654,23.79572 -8.87764,31.48357 h -0.27456 l -8.42003,-23.7042 c -2.74566,-6.13197 -6.58958,-8.51155 -14.09439,-8.14546 -1.83044,0.0915 -3.29479,-0.0915 -3.20327,1.92196 0.0915,1.6474 0.54913,1.46435 2.10501,1.73892 3.66088,0.45761 4.94219,2.105 6.95567,6.58959 z"
           style="font-style:normal;font-variant:normal;font-weight:normal;font-stretch:normal;font-size:100.615px;font-family:Alice;-inkscape-font-specification:Alice;fill:#74a69a;fill-opacity:1;stroke:none;stroke-width:18.6894"
           id="path66" />
        <path
           d="m -215.70509,241.88335 c 7.41328,0 13.27069,-3.66088 17.02309,-9.60981 0.45762,-0.73217 0.18305,-1.92196 -0.73217,-2.47109 -0.8237,-0.54914 -1.55587,-0.45761 -2.01349,0.0915 -3.38631,5.49132 -6.77263,7.41328 -11.89786,7.41328 -10.34198,0 -14.46048,-7.87089 -14.46048,-18.48745 h 22.23985 c 3.7524,0 6.40655,-0.91522 6.40655,-5.21675 -0.82371,-8.87764 -6.31503,-15.37569 -17.57223,-15.37569 -12.63004,0 -20.40941,10.98264 -20.40941,21.59919 0,11.98938 7.23024,22.0568 21.41615,22.0568 z M -227.786,215.34197 c 0.45762,-8.78612 4.94219,-13.91135 11.07417,-13.91135 5.94893,0 8.78611,4.85067 8.78611,10.06742 -0.18304,2.83719 -2.01348,3.84393 -4.94219,3.84393 z"
           style="font-style:normal;font-variant:normal;font-weight:normal;font-stretch:normal;font-size:100.615px;font-family:Alice;-inkscape-font-specification:Alice;fill:#74a69a;fill-opacity:1;stroke:none;stroke-width:18.6894"
           id="path68" />
        <path
           d="m -175.16095,242.34097 c 3.84392,0 6.77262,-0.45762 10.52503,-2.92871 0.54913,-0.36609 0.64065,-0.73217 0.45761,-1.28131 -0.36609,-0.8237 -0.8237,-1.83044 -1.73892,-1.83044 -0.45761,0 -1.00674,0.27456 -1.46435,0.45761 -2.01348,0.91522 -3.66088,1.00675 -5.03371,1.00675 -4.02697,0 -5.30828,-3.47784 -5.30828,-7.0472 v -27.8227 l 10.25046,0.27457 c 0.64066,0 1.09827,-1.46435 1.09827,-2.74566 0,-0.91522 -0.27456,-1.83044 -1.37283,-1.73892 l -10.70808,0.64066 0.64066,-10.43351 c 0,-0.91522 -1.18979,-1.28131 -1.92197,-1.28131 -0.91522,0 -1.64739,0.18305 -2.01348,1.18978 -1.73891,4.94219 -2.83718,9.06069 -9.60981,10.342 -0.8237,0.18304 -1.2813,1.09826 -1.2813,2.105 0,0.8237 0.4576,1.64739 1.2813,1.64739 l 5.30828,-0.18304 v 26.90747 c 0,8.60307 5.39979,12.72157 10.89112,12.72157 z"
           style="font-style:normal;font-variant:normal;font-weight:normal;font-stretch:normal;font-size:100.615px;font-family:Alice;-inkscape-font-specification:Alice;fill:#74a69a;fill-opacity:1;stroke:none;stroke-width:18.6894"
           id="path70" />
        <path
           d="m -144.86719,241.88335 c 5.94893,0 11.80633,-2.56262 14.46048,-7.41328 0.54913,4.66762 4.66762,7.41328 9.1522,7.41328 1.55587,0 5.03371,-0.4576 5.03371,-2.105 0,-1.37284 -0.54913,-1.46435 -1.37283,-1.46435 -3.7524,0 -4.66762,-3.56937 -4.75915,-5.39981 v -21.32462 c 0,-11.25721 -8.69459,-13.36221 -16.93157,-13.36221 -7.04719,0 -14.552,2.47109 -14.552,9.33524 0,3.38631 2.105,6.77263 5.94893,6.77263 2.4711,0 3.93545,-1.73892 3.93545,-2.28806 0,-0.36608 -2.92871,-1.73891 -2.92871,-4.75914 0,-4.11849 3.56936,-6.40654 7.0472,-6.40654 6.86415,0 9.42677,3.47784 9.42677,9.1522 v 7.23024 c -12.08091,0.64065 -26.72443,1.37283 -26.72443,13.72831 0,6.04045 4.75914,10.89111 12.26395,10.89111 z m 2.9287,-4.94219 c -3.84392,0 -5.94893,-1.92196 -5.94893,-6.22349 0,-7.13872 4.85067,-9.88438 17.48071,-10.7996 v 5.21676 c 0,6.6811 -5.30828,11.80633 -11.53178,11.80633 z"
           style="font-style:normal;font-variant:normal;font-weight:normal;font-stretch:normal;font-size:100.615px;font-family:Alice;-inkscape-font-specification:Alice;fill:#74a69a;fill-opacity:1;stroke:none;stroke-width:18.6894"
           id="path72" />
      </g>
    </g>
  </g>
</svg>
